<?xml version="1.0" standalone="no"?>
<!DOCTYPE svg PUBLIC "-//W3C//DTD SVG 20010904//EN"
 "http://www.w3.org/TR/2001/REC-SVG-20010904/DTD/svg10.dtd">
<svg version="1.0" xmlns="http://www.w3.org/2000/svg"
 width="256.000000pt" height="256.000000pt" viewBox="0 0 256.000000 256.000000"
 preserveAspectRatio="xMidYMid meet">
<metadata>
Created by potrace 1.14, written by Peter Selinger 2001-2017
</metadata>
<g transform="translate(0.000000,256.000000) scale(0.100000,-0.100000)"
fill="#000000" stroke="none">
<path d="M1150 2273 c-419 -67 -743 -359 -842 -760 -26 -106 -31 -342 -9 -433
30 -125 67 -218 127 -317 148 -242 372 -401 655 -462 65 -14 119 -18 215 -16
71 2 140 5 154 9 14 3 48 11 75 17 265 62 518 264 645 517 76 151 101 254 105
428 7 285 -90 528 -292 731 -74 74 -113 105 -198 155 -84 49 -221 102 -295
114 -19 3 -39 8 -44 12 -11 6 -260 11 -296 5z"/>
</g>
</svg>
